<mxfile host="app.diagrams.net" modified="2024-05-09T21:58:21.542Z" agent="Mozilla/5.0 (Windows NT 10.0; Win64; x64) AppleWebKit/537.36 (KHTML, like Gecko) Chrome/124.0.0.0 Safari/537.36 Edg/124.0.0.0" version="24.0.1" etag="-MAoV3m6ahZ_YtflsspQ" type="github">
  <diagram name="PÃ¡gina-1" id="pVMGipbRWt432KiS6jO7">
    <mxGraphModel>
      <root>
        <mxCell id="0" />
        <mxCell id="1" parent="0" />
      </root>
    </mxGraphModel>
  </diagram>
</mxfile>
